RWalking1.mot
version=1
datacolumns 20
datarows 20
range 0.000000 0.190000
inDegrees=yes
endheader
time	pelvis_tilt	pelvis_list	pelvis_rotation	hip_flexion_r	hip_adduction_r	hip_rotation_r	knee_angle_r	ankle_angle_r	hip_flexion_l	hip_adduction_l	hip_rotation_l	knee_angle_l	ankle_angle_l	pelvis_tx	pelvis_ty	pelvis_tz	lumbar_bending	lumbar_rotation	lumbar_extension
0.000000	-12.310000	2.970000	1.510000	6.150000	-2.840000	-4.880000	-5.220000	6.310000	8.400000	-4.330000	1.850000	-9.090000	6.310000	-1.390000	1.000000	-0.050000	-0.000000	-0.000000	0.000000
0.010000	-10.980000	2.950000	1.400000	4.640000	-2.710000	-5.490000	-5.100000	6.070000	6.640000	-4.250000	2.320000	-8.340000	5.880000	-1.390000	1.000000	-0.050000	-0.000000	-0.000000	0.000000
0.020000	-10.980000	3.130000	1.360000	4.450000	-2.890000	-5.850000	-5.050000	6.450000	6.080000	-4.390000	2.300000	-7.490000	5.760000	-1.390000	1.000000	-0.050000	-0.000000	-0.000000	0.000000
0.030000	-11.360000	3.220000	1.410000	4.780000	-3.020000	-5.810000	-5.090000	6.760000	6.310000	-4.480000	2.160000	-7.320000	5.880000	-1.380000	1.000000	-0.050000	-0.000000	-0.000000	0.000000
0.040000	-11.780000	3.310000	1.500000	5.140000	-3.170000	-5.740000	-5.160000	7.110000	6.570000	-4.580000	2.000000	-7.170000	6.040000	-1.380000	1.000000	-0.050000	-0.000000	-0.000000	0.000000
0.050000	-12.200000	3.380000	1.600000	5.490000	-3.300000	-5.640000	-5.270000	7.500000	6.820000	-4.670000	1.870000	-7.040000	6.210000	-1.380000	1.000000	-0.050000	-0.000000	-0.000000	0.000000
0.060000	-12.560000	3.430000	1.720000	5.810000	-3.410000	-5.520000	-5.430000	7.900000	7.020000	-4.740000	1.780000	-6.920000	6.410000	-1.380000	1.000000	-0.050000	-0.000000	-0.000000	0.000000
0.070000	-12.850000	3.440000	1.840000	6.090000	-3.480000	-5.370000	-5.650000	8.290000	7.160000	-4.770000	1.730000	-6.830000	6.600000	-1.380000	0.990000	-0.050000	-0.000000	-0.000000	0.000000
0.080000	-13.070000	3.420000	1.960000	6.330000	-3.500000	-5.210000	-5.970000	8.680000	7.230000	-4.780000	1.710000	-6.740000	6.790000	-1.380000	0.990000	-0.060000	-0.000000	-0.000000	0.000000
0.090000	-13.230000	3.370000	2.080000	6.560000	-3.500000	-5.050000	-6.370000	9.090000	7.250000	-4.770000	1.690000	-6.650000	6.960000	-1.380000	0.990000	-0.060000	-0.000000	-0.000000	0.000000
0.100000	-13.370000	3.300000	2.200000	6.820000	-3.480000	-4.900000	-6.870000	9.510000	7.230000	-4.750000	1.660000	-6.560000	7.120000	-1.370000	0.990000	-0.060000	-0.000000	-0.000000	0.000000
0.110000	-13.510000	3.230000	2.340000	7.120000	-3.460000	-4.790000	-7.470000	9.960000	7.220000	-4.720000	1.610000	-6.470000	7.260000	-1.370000	0.990000	-0.060000	-0.000000	-0.000000	0.000000
0.120000	-13.670000	3.160000	2.490000	7.480000	-3.450000	-4.720000	-8.150000	10.420000	7.230000	-4.710000	1.540000	-6.400000	7.390000	-1.370000	0.990000	-0.060000	-0.000000	-0.000000	0.000000
0.130000	-13.840000	3.110000	2.640000	7.910000	-3.460000	-4.700000	-8.930000	10.880000	7.280000	-4.700000	1.480000	-6.360000	7.510000	-1.370000	0.990000	-0.060000	-0.000000	-0.000000	0.000000
0.140000	-14.030000	3.070000	2.780000	8.420000	-3.490000	-4.710000	-9.810000	11.320000	7.350000	-4.710000	1.460000	-6.350000	7.640000	-1.370000	0.990000	-0.060000	-0.000000	-0.000000	0.000000
0.150000	-14.210000	3.050000	2.900000	8.980000	-3.530000	-4.750000	-10.810000	11.680000	7.430000	-4.720000	1.520000	-6.380000	7.760000	-1.360000	0.990000	-0.060000	-0.000000	-0.000000	0.000000
0.160000	-14.360000	3.050000	3.000000	9.600000	-3.590000	-4.790000	-11.940000	11.930000	7.490000	-4.730000	1.680000	-6.440000	7.880000	-1.360000	0.990000	-0.060000	-0.000000	-0.000000	0.000000
0.170000	-14.470000	3.040000	3.070000	10.260000	-3.650000	-4.820000	-13.200000	12.030000	7.530000	-4.710000	1.950000	-6.500000	7.970000	-1.360000	0.990000	-0.060000	-0.000000	-0.000000	0.000000
0.180000	-14.540000	3.000000	3.130000	10.970000	-3.690000	-4.830000	-14.610000	11.920000	7.520000	-4.660000	2.330000	-6.540000	8.030000	-1.360000	0.990000	-0.060000	-0.000000	-0.000000	0.000000
0.190000	-14.590000	2.920000	3.170000	11.730000	-3.680000	-4.840000	-16.140000	11.600000	7.490000	-4.550000	2.800000	-6.570000	8.030000	-1.360000	0.990000	-0.060000	-0.000000	-0.000000	0.000000
